<svg>
    <symbol id="home" xmlns="http://www.w3.org/2000/svg" width="25" height="24" viewBox="0 0 25 24" fill="none">
        <path d="M6.49997 19H9.84615V13.0577H15.1538V19H18.5V10L12.5 5.48079L6.49997 10V19ZM5 20.5V9.25004L12.5 3.60583L20 9.25004V20.5H13.6538V14.5577H11.3461V20.5H5Z" fill="#0F0F0F"/>
    </symbol>
    <symbol id="zapiz" xmlns="http://www.w3.org/2000/svg" width="25" height="24" viewBox="0 0 25 24" fill="none">
        <path d="M16.2275 15.1563C15.5598 15.1563 14.9923 14.9226 14.5249 14.4552C14.0575 13.9878 13.8238 13.4203 13.8238 12.7526C13.8238 12.0849 14.0575 11.5174 14.5249 11.05C14.9923 10.5826 15.5598 10.3489 16.2275 10.3489C16.8952 10.3489 17.4627 10.5826 17.9301 11.05C18.3975 11.5174 18.6312 12.0849 18.6312 12.7526C18.6312 13.4203 18.3975 13.9878 17.9301 14.4552C17.4627 14.9226 16.8952 15.1563 16.2275 15.1563ZM16.2275 13.7977C16.519 13.7977 16.766 13.6964 16.9686 13.4937C17.1713 13.2911 17.2726 13.0441 17.2726 12.7526C17.2726 12.4611 17.1713 12.2141 16.9686 12.0114C16.766 11.8088 16.519 11.7075 16.2275 11.7075C15.936 11.7075 15.689 11.8088 15.4863 12.0114C15.2837 12.2141 15.1824 12.4611 15.1824 12.7526C15.1824 13.0441 15.2837 13.2911 15.4863 13.4937C15.689 13.6964 15.936 13.7977 16.2275 13.7977ZM11.1066 21V18.6869C11.1066 18.4247 11.1691 18.178 11.2941 17.947C11.419 17.716 11.594 17.5318 11.819 17.3945C12.2702 17.1253 12.7461 16.9022 13.2466 16.7251C13.7472 16.548 14.2583 16.417 14.78 16.332L16.2275 18.1522L17.6662 16.332C18.1908 16.417 18.7011 16.548 19.1973 16.7251C19.6935 16.9022 20.1684 17.1253 20.6221 17.3945C20.8473 17.5315 21.0233 17.715 21.1498 17.9449C21.2764 18.1748 21.3426 18.4192 21.3484 18.6782V21H11.1066ZM12.4425 19.6414H15.6719L14.2662 17.8508C13.9463 17.9318 13.6352 18.0371 13.333 18.1667C13.0308 18.2964 12.734 18.4407 12.4425 18.5998V19.6414ZM16.7831 19.6414H19.9898V18.5998C19.7076 18.4314 19.4155 18.2863 19.1133 18.1643C18.8111 18.0424 18.5 17.9408 18.18 17.8595L16.7831 19.6414ZM5.64145 19.3976C5.18698 19.3976 4.79979 19.2372 4.47988 18.9166C4.15996 18.596 4 18.2105 4 17.7603V5.63731C4 5.18705 4.16032 4.8016 4.48097 4.48097C4.8016 4.16032 5.18705 4 5.63731 4H17.7603C18.2105 4 18.596 4.16032 18.9166 4.48097C19.2372 4.8016 19.3976 5.18705 19.3976 5.63731V9.57375C19.2083 9.35893 19.0065 9.15775 18.7923 8.97023C18.578 8.7827 18.3269 8.65236 18.039 8.5792V5.63731C18.039 5.55602 18.0128 5.48924 17.9606 5.43698C17.9083 5.38472 17.8415 5.35859 17.7603 5.35859H5.63731C5.55602 5.35859 5.48924 5.38472 5.43698 5.43698C5.38472 5.48924 5.35859 5.55602 5.35859 5.63731V17.7603C5.35859 17.8415 5.38472 17.9083 5.43698 17.9606C5.48924 18.0128 5.55602 18.039 5.63731 18.039H9.03033C9.00245 18.147 8.98154 18.255 8.96761 18.3629C8.95367 18.4709 8.94671 18.5789 8.94671 18.6869V19.3976H5.64145ZM7.39653 8.85962H13.9283C14.2337 8.64481 14.5638 8.48515 14.9185 8.38064C15.2733 8.27613 15.6341 8.21808 16.001 8.20647V7.50103H7.39653V8.85962ZM7.39653 12.3781H11.7075C11.7191 12.1365 11.7516 11.904 11.805 11.6805C11.8584 11.457 11.9281 11.2366 12.014 11.0195H7.39653V12.3781ZM7.39653 15.8965H10.2252C10.3854 15.7665 10.5541 15.6472 10.7312 15.5386C10.9083 15.43 11.0891 15.3333 11.2738 15.2486V14.5379H7.39653V15.8965ZM5.35859 18.039V5.35859V8.56528V8.18903V18.039Z" fill="#0F0F0F"/>
    </symbol>
    <symbol id="vrach" xmlns="http://www.w3.org/2000/svg" width="25" height="24" viewBox="0 0 25 24" fill="none">
        <path d="M12.4999 15.925L15.6499 17.85L14.8249 14.25L17.5999 11.85L13.9499 11.525L12.4999 8.12498V15.925ZM7.07499 20.9614L8.50767 14.7923L3.72119 10.6442L10.0365 10.0962L12.4999 4.27893L14.9634 10.0962L21.2787 10.6442L16.4922 14.7923L17.9249 20.9614L12.4999 17.6884L7.07499 20.9614Z" fill="#0F0F0F"/>
    </symbol>
    <symbol id="profile" xmlns="http://www.w3.org/2000/svg" width="25" height="24" viewBox="0 0 25 24" fill="none">
        <path d="M6.52308 17.2923C7.37308 16.6615 8.29903 16.1635 9.30095 15.7981C10.3029 15.4327 11.3692 15.25 12.5 15.25C13.6307 15.25 14.6971 15.4327 15.699 15.7981C16.7009 16.1635 17.6269 16.6615 18.4769 17.2923C19.0987 16.609 19.5913 15.8179 19.9548 14.9192C20.3182 14.0205 20.5 13.0474 20.5 12C20.5 9.78331 19.7208 7.89581 18.1625 6.33748C16.6041 4.77914 14.7166 3.99998 12.5 3.99998C10.2833 3.99998 8.39581 4.77914 6.83748 6.33748C5.27914 7.89581 4.49998 9.78331 4.49998 12C4.49998 13.0474 4.68171 14.0205 5.04518 14.9192C5.40864 15.8179 5.90128 16.609 6.52308 17.2923ZM12.5003 12.75C11.5873 12.75 10.8173 12.4366 10.1904 11.8099C9.56346 11.1831 9.25 10.4133 9.25 9.50028C9.25 8.58726 9.56336 7.81729 10.1901 7.19038C10.8168 6.56346 11.5867 6.25 12.4997 6.25C13.4127 6.25 14.1827 6.56336 14.8096 7.19008C15.4365 7.81681 15.75 8.58668 15.75 9.49968C15.75 10.4127 15.4366 11.1827 14.8099 11.8096C14.1831 12.4365 13.4133 12.75 12.5003 12.75ZM12.5 21.5C11.1807 21.5 9.94325 21.2519 8.7875 20.7557C7.63173 20.2596 6.62628 19.5839 5.77115 18.7288C4.91603 17.8737 4.2404 16.8682 3.74425 15.7125C3.24808 14.5567 3 13.3192 3 12C3 10.6807 3.24808 9.44325 3.74425 8.2875C4.2404 7.13173 4.91603 6.12628 5.77115 5.27115C6.62628 4.41603 7.63173 3.7404 8.7875 3.24425C9.94325 2.74808 11.1807 2.5 12.5 2.5C13.8192 2.5 15.0567 2.74808 16.2125 3.24425C17.3682 3.7404 18.3737 4.41603 19.2288 5.27115C20.0839 6.12628 20.7596 7.13173 21.2557 8.2875C21.7519 9.44325 22 10.6807 22 12C22 13.3192 21.7519 14.5567 21.2557 15.7125C20.7596 16.8682 20.0839 17.8737 19.2288 18.7288C18.3737 19.5839 17.3682 20.2596 16.2125 20.7557C15.0567 21.2519 13.8192 21.5 12.5 21.5ZM12.5 20C13.4025 20 14.2727 19.8548 15.1105 19.5644C15.9484 19.274 16.6923 18.8679 17.3423 18.3461C16.6923 17.8436 15.958 17.4519 15.1394 17.1711C14.3208 16.8903 13.441 16.75 12.5 16.75C11.5589 16.75 10.6775 16.8887 9.85573 17.1663C9.03393 17.4439 8.30123 17.8371 7.65765 18.3461C8.30765 18.8679 9.05157 19.274 9.8894 19.5644C10.7272 19.8548 11.5974 20 12.5 20ZM12.5 11.25C12.9974 11.25 13.4134 11.0827 13.7481 10.7481C14.0827 10.4134 14.25 9.99741 14.25 9.49998C14.25 9.00254 14.0827 8.58651 13.7481 8.25188C13.4134 7.91726 12.9974 7.74995 12.5 7.74995C12.0025 7.74995 11.5865 7.91726 11.2519 8.25188C10.9173 8.58651 10.75 9.00254 10.75 9.49998C10.75 9.99741 10.9173 10.4134 11.2519 10.7481C11.5865 11.0827 12.0025 11.25 12.5 11.25Z" fill="#0F0F0F"/>
    </symbol>
    <symbol id="push" xmlns="http://www.w3.org/2000/svg" width="40" height="40" viewBox="0 0 40 40" fill="none">
        <rect x="0.5" y="0.5" width="39" height="39" rx="19.5" fill="#F4F4F8"/>
        <path d="M14 25.7238V24.8535H15.4058V17.9582C15.4058 16.8212 15.7657 15.8212 16.4854 14.9582C17.205 14.0951 18.1171 13.5576 19.2218 13.3456V12.8703C19.2218 12.6285 19.3062 12.423 19.475 12.2538C19.6438 12.0846 19.8489 12 20.0901 12C20.3313 12 20.537 12.0846 20.7071 12.2538C20.8773 12.423 20.9623 12.6285 20.9623 12.8703V13.3456C22.0669 13.5576 22.9791 14.0951 23.6987 14.9582C24.4184 15.8212 24.7782 16.8212 24.7782 17.9582V24.8535H26.1841V25.7238H14ZM20.0891 28C19.7017 28 19.371 27.8623 19.0971 27.587C18.8232 27.3117 18.6862 26.9807 18.6862 26.5941H21.4979C21.4979 26.9835 21.36 27.3152 21.0841 27.5891C20.8082 27.863 20.4765 28 20.0891 28ZM16.2761 24.8535H23.908V17.9582C23.908 16.9004 23.5364 16 22.7933 15.2569C22.0502 14.5138 21.1498 14.1423 20.092 14.1423C19.0343 14.1423 18.1339 14.5138 17.3908 15.2569C16.6477 16 16.2761 16.9004 16.2761 17.9582V24.8535Z" fill="#0F0F0F"/>
        <rect x="0.5" y="0.5" width="39" height="39" rx="19.5" stroke="#F4F4F8"/>
    </symbol>
    <symbol id="calendar" xmlns="http://www.w3.org/2000/svg" width="32" height="32" viewBox="0 0 32 32" fill="none">
        <rect width="32" height="32" rx="16" fill="white" fill-opacity="0.1"/>
        <path d="M11.3333 22.6666C10.9667 22.6666 10.6528 22.5361 10.3917 22.275C10.1306 22.0139 10 21.7 10 21.3333V12C10 11.6333 10.1306 11.3194 10.3917 11.0583C10.6528 10.7972 10.9667 10.6666 11.3333 10.6666H12V9.33331H13.3333V10.6666H18.6667V9.33331H20V10.6666H20.6667C21.0333 10.6666 21.3472 10.7972 21.6083 11.0583C21.8694 11.3194 22 11.6333 22 12V21.3333C22 21.7 21.8694 22.0139 21.6083 22.275C21.3472 22.5361 21.0333 22.6666 20.6667 22.6666H11.3333ZM11.3333 21.3333H20.6667V14.6666H11.3333V21.3333ZM11.3333 13.3333H20.6667V12H11.3333V13.3333ZM16 17.3333C15.8111 17.3333 15.6528 17.2694 15.525 17.1416C15.3972 17.0139 15.3333 16.8555 15.3333 16.6666C15.3333 16.4778 15.3972 16.3194 15.525 16.1916C15.6528 16.0639 15.8111 16 16 16C16.1889 16 16.3472 16.0639 16.475 16.1916C16.6028 16.3194 16.6667 16.4778 16.6667 16.6666C16.6667 16.8555 16.6028 17.0139 16.475 17.1416C16.3472 17.2694 16.1889 17.3333 16 17.3333ZM13.3333 17.3333C13.1444 17.3333 12.9861 17.2694 12.8583 17.1416C12.7306 17.0139 12.6667 16.8555 12.6667 16.6666C12.6667 16.4778 12.7306 16.3194 12.8583 16.1916C12.9861 16.0639 13.1444 16 13.3333 16C13.5222 16 13.6806 16.0639 13.8083 16.1916C13.9361 16.3194 14 16.4778 14 16.6666C14 16.8555 13.9361 17.0139 13.8083 17.1416C13.6806 17.2694 13.5222 17.3333 13.3333 17.3333ZM18.6667 17.3333C18.4778 17.3333 18.3194 17.2694 18.1917 17.1416C18.0639 17.0139 18 16.8555 18 16.6666C18 16.4778 18.0639 16.3194 18.1917 16.1916C18.3194 16.0639 18.4778 16 18.6667 16C18.8556 16 19.0139 16.0639 19.1417 16.1916C19.2694 16.3194 19.3333 16.4778 19.3333 16.6666C19.3333 16.8555 19.2694 17.0139 19.1417 17.1416C19.0139 17.2694 18.8556 17.3333 18.6667 17.3333ZM16 20C15.8111 20 15.6528 19.9361 15.525 19.8083C15.3972 19.6805 15.3333 19.5222 15.3333 19.3333C15.3333 19.1444 15.3972 18.9861 15.525 18.8583C15.6528 18.7305 15.8111 18.6666 16 18.6666C16.1889 18.6666 16.3472 18.7305 16.475 18.8583C16.6028 18.9861 16.6667 19.1444 16.6667 19.3333C16.6667 19.5222 16.6028 19.6805 16.475 19.8083C16.3472 19.9361 16.1889 20 16 20ZM13.3333 20C13.1444 20 12.9861 19.9361 12.8583 19.8083C12.7306 19.6805 12.6667 19.5222 12.6667 19.3333C12.6667 19.1444 12.7306 18.9861 12.8583 18.8583C12.9861 18.7305 13.1444 18.6666 13.3333 18.6666C13.5222 18.6666 13.6806 18.7305 13.8083 18.8583C13.9361 18.9861 14 19.1444 14 19.3333C14 19.5222 13.9361 19.6805 13.8083 19.8083C13.6806 19.9361 13.5222 20 13.3333 20ZM18.6667 20C18.4778 20 18.3194 19.9361 18.1917 19.8083C18.0639 19.6805 18 19.5222 18 19.3333C18 19.1444 18.0639 18.9861 18.1917 18.8583C18.3194 18.7305 18.4778 18.6666 18.6667 18.6666C18.8556 18.6666 19.0139 18.7305 19.1417 18.8583C19.2694 18.9861 19.3333 19.1444 19.3333 19.3333C19.3333 19.5222 19.2694 19.6805 19.1417 19.8083C19.0139 19.9361 18.8556 20 18.6667 20Z" fill="white"/>
    </symbol>
    <symbol id="apteka" xmlns="http://www.w3.org/2000/svg" width="32" height="32" viewBox="0 0 32 32" fill="none">
        <rect width="32" height="32" rx="16" fill="white" fill-opacity="0.1"/>
        <path d="M10.6489 22.3333C10.2975 22.3333 10.0001 22.2167 9.75657 21.9833C9.5131 21.75 9.39136 21.465 9.39136 21.1282V13.5385C9.39136 13.2017 9.5131 12.9167 9.75657 12.6834C10.0001 12.45 10.2975 12.3334 10.6489 12.3334H13.5653V11.2052C13.5653 10.8684 13.687 10.5834 13.9305 10.3501C14.174 10.1167 14.4714 10.0001 14.8228 10.0001H17.1773C17.5287 10.0001 17.8261 10.1167 18.0696 10.3501C18.3131 10.5834 18.4348 10.8684 18.4348 11.2052V12.3334H21.3512C21.7026 12.3334 22 12.45 22.2435 12.6834C22.487 12.9167 22.6087 13.2017 22.6087 13.5385V21.1282C22.6087 21.465 22.487 21.75 22.2435 21.9833C22 22.2167 21.7026 22.3333 21.3512 22.3333H10.6489ZM10.6489 21.3333H21.3512C21.4047 21.3333 21.4538 21.312 21.4984 21.2692C21.543 21.2265 21.5653 21.1795 21.5653 21.1282V13.5385C21.5653 13.4872 21.543 13.4402 21.4984 13.3974C21.4538 13.3547 21.4047 13.3333 21.3512 13.3333H10.6489C10.5954 13.3333 10.5463 13.3547 10.5017 13.3974C10.4571 13.4402 10.4348 13.4872 10.4348 13.5385V21.1282C10.4348 21.1795 10.4571 21.2265 10.5017 21.2692C10.5463 21.312 10.5954 21.3333 10.6489 21.3333ZM14.6087 12.3334H17.3913V11.2052C17.3913 11.1539 17.369 11.1069 17.3245 11.0641C17.2799 11.0214 17.2308 11 17.1773 11H14.8228C14.7693 11 14.7202 11.0214 14.6756 11.0641C14.631 11.1069 14.6087 11.1539 14.6087 11.2052V12.3334ZM15.4783 17.8333V19.8333H16.5218V17.8333H18.6087V16.8334H16.5218V14.8334H15.4783V16.8334H13.3914V17.8333H15.4783Z" fill="white"/>
    </symbol>
    <symbol id="zub" xmlns="http://www.w3.org/2000/svg" width="32" height="32" viewBox="0 0 32 32" fill="none">
        <rect width="32" height="32" rx="16" fill="white" fill-opacity="0.6"/>
        <path d="M19.4468 10C20.0689 10.0096 20.5988 10.2309 21.0366 10.6639C21.4744 11.0968 21.6933 11.6244 21.6933 12.2465C21.6933 12.3646 21.6863 12.5295 21.6724 12.7411C21.6585 12.9528 21.6328 13.2037 21.5954 13.4936L20.5513 21.038C20.5177 21.3299 20.3888 21.5632 20.1647 21.7379C19.9405 21.9126 19.6825 22 19.3906 22C19.19 22 19.0136 21.9448 18.8614 21.8344C18.7092 21.724 18.576 21.5901 18.4618 21.4326L16.2427 18.4114C16.1889 18.3423 16.1291 18.2863 16.0634 18.2436C15.9976 18.2009 15.9191 18.1795 15.8279 18.1795C15.7396 18.1795 15.6013 18.2693 15.4132 18.4488L13.2502 21.3765C13.1235 21.5397 12.9778 21.6844 12.8132 21.8106C12.6485 21.9369 12.4659 22 12.2652 22C11.9734 22 11.7185 21.9095 11.5005 21.7285C11.2826 21.5476 11.1568 21.3112 11.1232 21.0193L10.0979 13.4936C10.0605 13.2037 10.0348 12.9528 10.0209 12.7411C10.007 12.5295 10 12.3646 10 12.2465C10 11.6244 10.2189 11.0944 10.6567 10.6567C11.0944 10.2189 11.6244 10 12.2465 10C12.6094 10 12.9202 10.0593 13.1789 10.1778C13.4377 10.2964 13.6918 10.4243 13.9414 10.5616C14.1911 10.6989 14.4635 10.8268 14.7587 10.9454C15.0539 11.064 15.4165 11.1232 15.8466 11.1232C16.2863 11.1232 16.6562 11.064 16.9562 10.9454C17.2562 10.8268 17.531 10.6989 17.7806 10.5616C18.0303 10.4243 18.2827 10.2964 18.5381 10.1778C18.7935 10.0593 19.0964 10 19.4468 10ZM19.4468 10.7488C19.1597 10.7488 18.907 10.8081 18.6886 10.9267C18.4702 11.0452 18.2347 11.1732 17.9822 11.3105C17.7298 11.4477 17.4384 11.5757 17.1081 11.6942C16.7779 11.8128 16.3574 11.8721 15.8466 11.8721C15.3551 11.8721 14.9442 11.8128 14.614 11.6942C14.2837 11.5757 13.9923 11.4477 13.7398 11.3105C13.4873 11.1732 13.2471 11.0452 13.0191 10.9267C12.7911 10.8081 12.5335 10.7488 12.2465 10.7488C11.8346 10.7488 11.4821 10.8955 11.1888 11.1888C10.8955 11.4821 10.7488 11.8346 10.7488 12.2465C10.7488 12.3463 10.7551 12.4899 10.7676 12.6771C10.78 12.8643 10.805 13.0827 10.8424 13.3323L11.8721 20.9142C11.8846 21.014 11.9282 21.092 12.0031 21.1482C12.078 21.2044 12.1654 21.2324 12.2652 21.2324C12.3564 21.2324 12.4342 21.1984 12.4985 21.1302C12.5628 21.062 12.6219 20.9886 12.6756 20.9099L14.7968 18.024C14.9236 17.8512 15.0762 17.7091 15.2548 17.5977C15.4333 17.4864 15.6306 17.4307 15.8466 17.4307C16.0531 17.4307 16.2479 17.4864 16.4313 17.5977C16.6147 17.7091 16.7697 17.8512 16.8964 18.024L19.0407 20.966C19.0944 21.0323 19.1473 21.0964 19.1991 21.1583C19.2509 21.2202 19.321 21.2512 19.4093 21.2512C19.5092 21.2512 19.5997 21.2231 19.6808 21.1669C19.7619 21.1108 19.8087 21.0328 19.8212 20.9329L20.8508 13.3323C20.8883 13.0827 20.9132 12.8643 20.9257 12.6771C20.9382 12.4899 20.9444 12.3463 20.9444 12.2465C20.9444 11.8346 20.7978 11.4821 20.5045 11.1888C20.2112 10.8955 19.8586 10.7488 19.4468 10.7488Z" fill="#0F0F0F"/>
    </symbol>
    <symbol id="mozg" xmlns="http://www.w3.org/2000/svg" width="32" height="32" viewBox="0 0 32 32" fill="none">
        <rect width="32" height="32" rx="16" fill="white" fill-opacity="0.4"/>
        <path d="M13.7499 24.1923C13.0025 24.1923 12.3621 23.935 11.8288 23.4202C11.2954 22.9055 11.0127 22.2763 10.9807 21.5327C10.1474 21.3866 9.45505 20.9898 8.90377 20.3423C8.35249 19.6949 8.07685 18.9397 8.07685 18.0769C8.07685 17.7707 8.11626 17.4681 8.1951 17.1691C8.27395 16.8702 8.39222 16.5894 8.54992 16.3269C8.32812 16.0397 8.16177 15.7212 8.05087 15.3714C7.93997 15.0215 7.88452 14.6541 7.88452 14.2692C7.88452 13.3673 8.1826 12.5873 8.77877 11.9293C9.37492 11.2713 10.1134 10.8949 10.9941 10.8C10.9813 10.7487 10.9749 10.6974 10.9749 10.6462V10.4731C10.9865 9.71283 11.2608 9.07212 11.798 8.55095C12.3352 8.0298 12.9858 7.76923 13.7499 7.76923C14.2345 7.76923 14.6483 7.86538 14.9913 8.05768C15.3342 8.24999 15.6704 8.53269 15.9999 8.90578C16.3384 8.53269 16.6736 8.24999 17.0057 8.05768C17.3377 7.86538 17.7525 7.76923 18.2499 7.76923C18.9959 7.76923 19.6378 8.03204 20.1757 8.55768C20.7137 9.08333 20.9884 9.71987 20.9999 10.4673V10.6404C20.9999 10.6917 20.9935 10.7429 20.9807 10.7942C21.8615 10.8891 22.6041 11.2635 23.2086 11.9173C23.8131 12.5712 24.1153 13.3551 24.1153 14.2692C24.1153 14.6541 24.0567 15.0215 23.9393 15.3714C23.822 15.7212 23.6525 16.0397 23.4307 16.3269C23.5884 16.5885 23.7099 16.8689 23.7951 17.1682C23.8804 17.4674 23.923 17.7703 23.923 18.0769C23.923 18.9564 23.6464 19.7189 23.0932 20.3644C22.54 21.0099 21.8403 21.3994 20.9941 21.5327C20.9621 22.2763 20.6836 22.9055 20.1586 23.4202C19.6336 23.935 18.9974 24.1923 18.2499 24.1923C17.7435 24.1923 17.3265 24.0971 16.999 23.9067C16.6714 23.7163 16.3384 23.4282 15.9999 23.0423C15.6576 23.4282 15.3204 23.7163 14.9884 23.9067C14.6563 24.0971 14.2435 24.1923 13.7499 24.1923ZM16.4999 10.5192V21.4423C16.4999 21.9323 16.6699 22.3465 17.0098 22.6848C17.3497 23.0231 17.7659 23.1923 18.2582 23.1923C18.727 23.1923 19.1272 23.0269 19.4586 22.6962C19.79 22.3654 19.9704 21.9692 19.9999 21.5077C19.5089 21.4641 19.0534 21.3234 18.6336 21.0856C18.2137 20.8478 17.8615 20.5256 17.5768 20.1192C17.4871 20.0013 17.4529 19.8773 17.4744 19.7474C17.4958 19.6175 17.5665 19.512 17.6865 19.4308C17.8044 19.341 17.9308 19.3069 18.0656 19.3283C18.2004 19.3497 18.3099 19.4204 18.3941 19.5404C18.6245 19.8754 18.9177 20.1319 19.2736 20.3099C19.6296 20.4879 20.0127 20.5769 20.423 20.5769C21.1268 20.5769 21.7195 20.3362 22.2009 19.8548C22.6823 19.3734 22.923 18.7808 22.923 18.0769C22.923 17.9081 22.9028 17.7393 22.8624 17.5705C22.822 17.4017 22.7659 17.2372 22.6941 17.0769C22.4108 17.2949 22.09 17.4648 21.7316 17.5866C21.3733 17.7083 21.0012 17.7692 20.6153 17.7692C20.4736 17.7692 20.3549 17.7212 20.259 17.6253C20.1632 17.5293 20.1153 17.4104 20.1153 17.2686C20.1153 17.1267 20.1632 17.008 20.259 16.9125C20.3549 16.817 20.4736 16.7692 20.6153 16.7692C21.3191 16.7692 21.9118 16.5285 22.3932 16.0471C22.8746 15.5657 23.1153 14.9731 23.1153 14.2692C23.1153 13.5853 22.881 13.0051 22.4124 12.5284C21.9438 12.0518 21.3704 11.7987 20.6922 11.7692C20.5345 12.0821 20.3227 12.3542 20.0566 12.5856C19.7906 12.817 19.489 12.9994 19.1518 13.1327C19.0262 13.1814 18.9016 13.1774 18.7779 13.1205C18.6543 13.0637 18.5719 12.9703 18.5307 12.8404C18.4858 12.7147 18.4887 12.5878 18.5393 12.4596C18.59 12.3314 18.6845 12.2449 18.823 12.2C19.1756 12.0782 19.4599 11.8641 19.6759 11.5577C19.8919 11.2513 19.9999 10.9019 19.9999 10.5096C19.9999 10.025 19.8306 9.61379 19.4921 9.27595C19.1536 8.93814 18.7391 8.76923 18.2488 8.76923C17.7585 8.76923 17.3445 8.93839 17.0066 9.27673C16.6688 9.61506 16.4999 10.0292 16.4999 10.5192ZM15.4999 21.4423V10.5192C15.4999 10.0292 15.3306 9.61506 14.9921 9.27673C14.6536 8.93839 14.2391 8.76923 13.7488 8.76923C13.2585 8.76923 12.8445 8.93839 12.5066 9.27673C12.1688 9.61506 11.9999 10.0292 11.9999 10.5192C11.9999 10.9013 12.107 11.2465 12.3211 11.5548C12.5352 11.8631 12.8185 12.0782 13.1711 12.2C13.2967 12.2449 13.3922 12.3282 13.4576 12.45C13.523 12.5718 13.5344 12.6969 13.4917 12.8253C13.4405 12.9538 13.3508 13.0461 13.2228 13.1023C13.0947 13.1585 12.9615 13.1622 12.823 13.1135C12.4858 12.9801 12.1842 12.801 11.9182 12.576C11.6522 12.351 11.4403 12.0821 11.2826 11.7692C10.6211 11.7987 10.056 12.0542 9.58742 12.5356C9.11884 13.017 8.88455 13.597 8.88455 14.2755C8.88455 14.9752 9.12525 15.5657 9.60665 16.0471C10.0881 16.5285 10.6807 16.7692 11.3845 16.7692C11.5262 16.7692 11.645 16.8172 11.7408 16.9132C11.8366 17.0091 11.8845 17.1281 11.8845 17.2699C11.8845 17.4118 11.8366 17.5305 11.7408 17.626C11.645 17.7215 11.5262 17.7692 11.3845 17.7692C10.9986 17.7692 10.6265 17.7083 10.2682 17.5866C9.90986 17.4648 9.58903 17.2949 9.3057 17.0769C9.2339 17.2372 9.1778 17.4017 9.13742 17.5705C9.09704 17.7393 9.07685 17.9081 9.07685 18.0769C9.07685 18.7808 9.31755 19.3734 9.79895 19.8548C10.2804 20.3362 10.873 20.5769 11.5768 20.5769C11.9909 20.5769 12.3739 20.4869 12.7258 20.3067C13.0778 20.1266 13.3711 19.8711 13.6057 19.5404C13.6899 19.4204 13.7994 19.3497 13.9342 19.3283C14.069 19.3069 14.1954 19.3378 14.3134 19.4212C14.4313 19.5045 14.5015 19.6122 14.524 19.7442C14.5464 19.8763 14.5127 20.0013 14.423 20.1192C14.1256 20.5256 13.7659 20.8487 13.3441 21.0885C12.9224 21.3282 12.466 21.4699 11.9749 21.5135C12.0044 21.975 12.189 22.3702 12.5288 22.6991C12.8685 23.0279 13.2728 23.1923 13.7417 23.1923C14.234 23.1923 14.6501 23.0231 14.99 22.6848C15.33 22.3465 15.4999 21.9323 15.4999 21.4423Z" fill="#0F0F0F"/>
    </symbol>
    <symbol id="close" xmlns="http://www.w3.org/2000/svg" width="30" height="30" viewBox="0 0 30 30" fill="none">
        <rect width="30" height="30" rx="15" fill="white"/>
        <path opacity="0.18" d="M8 8L22 22M22 8L8 22" stroke="#0F0F0F" stroke-linecap="round"/>
    </symbol>
    <symbol id="history" xmlns="http://www.w3.org/2000/svg" width="32" height="32" viewBox="0 0 32 32" fill="none">
        <rect width="32" height="32" rx="16" fill="white" fill-opacity="0.6"/>
        <path d="M13.2921 22C13.0511 22 12.8448 21.9142 12.6732 21.7425C12.5015 21.5709 12.4157 21.3646 12.4157 21.1236V19.3708H14.8427V16.5225C14.2865 16.6393 13.7166 16.6216 13.1329 16.4694C12.5492 16.3171 12.0674 16.0494 11.6876 15.6663V14.4326H10.4438L8 11.9888C8.50338 11.5303 9.07473 11.1876 9.71405 10.9607C10.3534 10.7337 11.0112 10.6202 11.6876 10.6202C12.2493 10.6202 12.7953 10.7 13.3257 10.8595C13.8561 11.0191 14.3618 11.2691 14.8427 11.6095V10H23.6067V20.2472C23.6067 20.7416 23.4382 21.1573 23.1011 21.4944C22.764 21.8315 22.3483 22 21.8539 22H13.2921ZM15.7191 19.3708H20.9775V20.2472C20.9775 20.4955 21.0615 20.7036 21.2295 20.8716C21.3975 21.0396 21.6056 21.1236 21.8539 21.1236C22.1022 21.1236 22.3104 21.0396 22.4784 20.8716C22.6463 20.7036 22.7303 20.4955 22.7303 20.2472V10.8764H15.7191V12.2786L20.5393 17.0989V17.7191H19.9191L17.2528 15.0528L16.7573 15.5483C16.5865 15.7191 16.4188 15.8623 16.2542 15.9781C16.0896 16.0938 15.9112 16.1955 15.7191 16.2831V19.3708ZM10.818 13.5562H12.564V15.2719C12.8629 15.4562 13.141 15.5814 13.3983 15.6477C13.6556 15.714 13.9056 15.7472 14.1484 15.7472C14.5472 15.7472 14.9098 15.6792 15.2362 15.5433C15.5626 15.4073 15.8685 15.1966 16.1539 14.9112L16.6326 14.4326L15.1022 12.9022C14.6335 12.4337 14.1081 12.0823 13.5262 11.848C12.9443 11.6138 12.3315 11.4966 11.6876 11.4966C11.2607 11.4966 10.8455 11.5522 10.4421 11.6635C10.0388 11.7747 9.67755 11.9191 9.35845 12.0966L10.818 13.5562ZM20.1011 20.2472H13.2921V21.1236H20.3674C20.2674 21.0034 20.198 20.8684 20.1593 20.7187C20.1205 20.569 20.1011 20.4118 20.1011 20.2472Z" fill="black"/>
    </symbol>
    <symbol id="shit" xmlns="http://www.w3.org/2000/svg" width="32" height="32" viewBox="0 0 32 32" fill="none">
        <rect width="32" height="32" rx="16" fill="white" fill-opacity="0.6"/>
        <path d="M15.6 23C13.9783 22.5917 12.6396 21.6613 11.5838 20.2087C10.5279 18.7563 10 17.1433 10 15.37V11.1L15.6 9L21.2 11.1V15.37C21.2 17.1433 20.6721 18.7563 19.6163 20.2087C18.5604 21.6613 17.2217 22.5917 15.6 23ZM15.6 21.53C16.8133 21.145 17.8167 20.375 18.61 19.22C19.4033 18.065 19.8 16.7817 19.8 15.37V12.0625L15.6 10.4875L11.4 12.0625V15.37C11.4 16.7817 11.7967 18.065 12.59 19.22C13.3833 20.375 14.3867 21.145 15.6 21.53Z" fill="#0F0F0F"/>
    </symbol>
    <symbol id="akcss" xmlns="http://www.w3.org/2000/svg" width="32" height="32" viewBox="0 0 32 32" fill="none">
        <rect width="32" height="32" rx="16" fill="white" fill-opacity="0.6"/>
        <path d="M14.979 23C14.4634 23 14.0716 22.8473 13.8036 22.542C13.5357 22.2366 13.4018 21.8887 13.4018 21.4983C13.4018 21.238 13.4575 20.9813 13.5691 20.7281C13.6807 20.4749 13.8598 20.2678 14.1063 20.1068C14.4079 19.9009 14.6583 19.6243 14.8575 19.2769C15.0567 18.9294 15.2047 18.5442 15.3015 18.1214C15.1711 18.0715 15.0432 18.0139 14.9179 17.9487C14.7926 17.8835 14.6713 17.7989 14.5542 17.695L12.6956 18.3659C12.501 18.4352 12.3167 18.4913 12.1426 18.5341C11.9685 18.5769 11.789 18.5982 11.604 18.5982C10.9185 18.5982 10.3131 18.2911 9.78788 17.6767C9.26263 17.0623 9 16.1631 9 14.979C9 14.4634 9.15178 14.0716 9.45534 13.8036C9.75888 13.5357 10.0998 13.4018 10.478 13.4018C10.751 13.4018 11.0149 13.4575 11.2697 13.5691C11.5244 13.6807 11.7322 13.8598 11.8932 14.1063C12.0991 14.4079 12.3757 14.6583 12.7231 14.8575C13.0706 15.0567 13.4558 15.2047 13.8786 15.3015C13.9285 15.1711 13.9861 15.0432 14.0513 14.9179C14.1165 14.7926 14.2011 14.6713 14.305 14.5542L13.6341 12.6956C13.5648 12.5112 13.5087 12.3283 13.4659 12.1469C13.4231 11.9656 13.4018 11.7893 13.4018 11.6181C13.4018 10.8111 13.7533 10.173 14.4563 9.70382C15.1594 9.23461 16.0143 9 17.021 9C17.5366 9 17.9284 9.15104 18.1964 9.45311C18.4643 9.75517 18.5982 10.0944 18.5982 10.4707C18.5982 10.7282 18.5425 10.9869 18.4309 11.2467C18.3193 11.5066 18.1402 11.717 17.8937 11.8779C17.5921 12.0838 17.3417 12.363 17.1425 12.7155C16.9433 13.0681 16.7953 13.4558 16.6985 13.8786C16.8391 13.9387 16.9725 14.0024 17.0987 14.0696C17.225 14.1369 17.3407 14.2154 17.4458 14.305L19.3044 13.6142C19.499 13.5449 19.6806 13.4922 19.8492 13.456C20.0177 13.4198 20.1945 13.4018 20.3794 13.4018C21.2604 13.4018 21.9174 13.7742 22.3504 14.519C22.7835 15.2638 23 16.0978 23 17.021C23 17.5366 22.839 17.9284 22.517 18.1964C22.1951 18.4643 21.8379 18.5982 21.4454 18.5982C21.1939 18.5982 20.9481 18.5425 20.7082 18.4309C20.4682 18.3193 20.2678 18.1402 20.1068 17.8937C19.9009 17.5921 19.6243 17.3417 19.2769 17.1425C18.9294 16.9433 18.5442 16.7953 18.1214 16.6985C18.0715 16.8289 18.0139 16.9542 17.9487 17.0745C17.8835 17.1947 17.7989 17.3185 17.695 17.4458L18.3659 19.3044C18.4323 19.4873 18.4876 19.6617 18.5319 19.8275C18.5761 19.9933 18.5982 20.1567 18.5982 20.3177C18.5911 21.0055 18.2827 21.6245 17.6729 22.1747C17.0632 22.7249 16.1653 23 14.979 23ZM16.0036 17.4367C16.4037 17.4367 16.7425 17.2967 17.0202 17.0166C17.2979 16.7365 17.4367 16.3965 17.4367 15.9964C17.4367 15.5963 17.2967 15.2575 17.0166 14.9798C16.7365 14.7021 16.3965 14.5633 15.9964 14.5633C15.5963 14.5633 15.2575 14.7033 14.9798 14.9834C14.7021 15.2635 14.5633 15.6035 14.5633 16.0036C14.5633 16.4037 14.7033 16.7425 14.9834 17.0202C15.2635 17.2979 15.6035 17.4367 16.0036 17.4367ZM14.9638 14.0345C15.1146 13.9469 15.2687 13.8829 15.4261 13.8427C15.5835 13.8024 15.7427 13.7808 15.9037 13.7777C16.0097 13.2316 16.1913 12.7354 16.4486 12.2891C16.7059 11.8428 17.0388 11.4862 17.4474 11.2192C17.5645 11.1357 17.6532 11.0338 17.7133 10.9135C17.7734 10.7933 17.8035 10.6481 17.8035 10.478C17.8035 10.2862 17.7408 10.1244 17.6155 9.99253C17.4902 9.86068 17.292 9.79476 17.021 9.79476C16.4948 9.79476 15.8995 9.91899 15.2349 10.1674C14.5703 10.4159 14.2242 10.9015 14.1965 11.6242C14.1965 11.7598 14.2156 11.8856 14.2538 12.0017C14.292 12.1179 14.3244 12.2223 14.3509 12.3151L14.9638 14.0345ZM11.5982 17.8035C11.7735 17.8035 12.0124 17.752 12.3151 17.6491L14.0498 17.0362C13.9622 16.9058 13.8957 16.7619 13.8503 16.6045C13.805 16.4471 13.7808 16.2777 13.7777 16.0963C13.2316 15.9903 12.7354 15.8087 12.2891 15.5514C11.8428 15.2941 11.4862 14.9612 11.2192 14.5526C11.1357 14.4355 11.0254 14.3468 10.8883 14.2867C10.7513 14.2266 10.6145 14.1965 10.478 14.1965C10.2569 14.1965 10.0877 14.2592 9.97052 14.3845C9.85335 14.5098 9.79476 14.708 9.79476 14.979C9.79476 15.7267 9.94881 16.3843 10.2569 16.952C10.565 17.5197 11.0121 17.8035 11.5982 17.8035ZM14.979 22.2052C15.6224 22.2052 16.2555 22.0616 16.8784 21.7742C17.5012 21.4869 17.8096 21.0014 17.8035 20.3177C17.8035 20.1932 17.7844 20.0765 17.7462 19.9675C17.708 19.8586 17.6756 19.7644 17.6491 19.6849L17.0362 17.9502C16.8854 18.048 16.7237 18.1171 16.551 18.1573C16.3783 18.1976 16.2267 18.2192 16.0963 18.2223C15.9903 18.7684 15.8087 19.2646 15.5514 19.7109C15.2941 20.1572 14.9612 20.5138 14.5526 20.7808C14.4456 20.8541 14.3588 20.9594 14.292 21.0964C14.2253 21.2334 14.1935 21.3687 14.1965 21.5022C14.1996 21.6897 14.2622 21.8537 14.3845 21.9943C14.5068 22.1349 14.7049 22.2052 14.979 22.2052ZM21.463 17.8035C21.6603 17.8035 21.8333 17.7475 21.9821 17.6354C22.1309 17.5233 22.2052 17.3185 22.2052 17.021C22.2052 16.4948 22.0848 15.896 21.8439 15.2245C21.6029 14.553 21.1136 14.2104 20.3758 14.1965C20.2402 14.1965 20.117 14.2098 20.0059 14.2363C19.8948 14.2627 19.7878 14.2943 19.6849 14.331L17.9655 14.9638C18.0429 15.1044 18.1043 15.2559 18.1497 15.4185C18.195 15.581 18.2192 15.7427 18.2223 15.9037C18.7684 16.0097 19.2646 16.1913 19.7109 16.4486C20.1572 16.7059 20.5138 17.0388 20.7808 17.4474C20.8409 17.5442 20.9367 17.6277 21.0683 17.698C21.1998 17.7683 21.3314 17.8035 21.463 17.8035Z" fill="#0F0F0F"/>
    </symbol>
</svg>